# xmcd
#
# Track frame offsets: 
#        150
#        17846
#        36345
#        48931
#        72226
#        81094
#        90422
#        101723
#        120308
#        133997
#        142193
#        145953
#        154376
#        171367
#        185795
#        203058
#        228254
#        240778
#        289791
#
# Disc length: 4206 seconds
#
# Revision: 1
# Processed by: cddbd v1.5.2PL0 Copyright (c) Steve Scherf et al.
# Submitted via: ExactAudioCopy v0.95b4
#
DISCID=12106c13
DTITLE=Tom Waits - Tales from the Underground 2
DYEAR=1996
DGENRE=Blues
TTITLE0=Waitin' for Waits
TTITLE1=I'll Never Let Go of Your Hand
TTITLE2=Walk Away
TTITLE3=Sleep Tonight
TTITLE4=I'm Crazy 'Bout My Baby
TTITLE5=Pontiac
TTITLE6=Take Care of All Children
TTITLE7=Serrano
TTITLE8=The Fall of Troy
TTITLE9=Jesus Blood Never Failed Me Yet
TTITLE10=Martin Goes and Does Where It's At
TTITLE11=Eggs and Sausage
TTITLE12=Date to Church
TTITLE13=Metrotown
TTITLE14=Thousand Bing Bangs
TTITLE15=Down There by the Train
TTITLE16=Sweet and Shiny Eyes
TTITLE17=Fumblin' with the Blues, Drunk to the Moon, Virginia Avenue (
TTITLE17=rec. live May 26 1976, Amsterdam)
TTITLE18=Tango 'Till They're Sore (rec. live Nov 16 1985, Paris)
EXTD=
EXTT0=
EXTT1=
EXTT2=
EXTT3=
EXTT4=
EXTT5=
EXTT6=
EXTT7=
EXTT8=
EXTT9=
EXTT10=
EXTT11=
EXTT12=
EXTT13=
EXTT14=
EXTT15=
EXTT16=
EXTT17=
EXTT18=
PLAYORDER=
